<svg xmlns="http://www.w3.org/2000/svg" version="1.1" xmlns:xlink="http://www.w3.org/1999/xlink" xmlns:svgjs="http://svgjs.com/svgjs" width="1440" height="560" preserveAspectRatio="none" viewBox="0 0 1440 560">
    <g mask="url(&quot;#SvgjsMask1042&quot;)" fill="none">
        <rect width="1440" height="560" x="0" y="0" fill="transparent"></rect>
        <path d="M0,470.044C91.318,462.863,179.479,447.513,261.858,407.46C352.796,363.245,456.25,319.525,498.512,227.663C540.794,135.758,487.661,31.777,481.142,-69.178C473.937,-180.756,520.567,-304.228,458.176,-397.012C394.942,-491.05,271.666,-524.828,160.379,-546.2C55.813,-566.281,-51.496,-552.092,-150.919,-513.982C-245.045,-477.903,-314.255,-404.961,-387.839,-336.064C-470.14,-259.005,-592.819,-199.118,-606.699,-87.23C-620.593,24.771,-512.609,110.698,-455.325,207.94C-404.561,294.114,-376.413,400.938,-289.733,450.834C-204.114,500.12,-98.487,477.788,0,470.044" fill="#e6e6e6"></path>
        <path d="M1440 1097.7150000000001C1536.893 1077.384 1602.308 994.012 1677.636 929.768 1742.68 874.2950000000001 1804.48 819.492 1850.613 747.521 1903.061 665.698 1974.7069999999999 581.289 1962.8400000000001 484.827 1950.95 388.18100000000004 1860.252 324.18899999999996 1790.211 256.541 1725.76 194.29199999999997 1656.472 139.85500000000002 1572.711 108.02699999999999 1483.733 74.21699999999998 1387.089 41.942999999999984 1295.725 68.64299999999997 1204.324 95.35399999999998 1148.684 181.68099999999998 1083.415 251.017 1015.2139999999999 323.46799999999996 930.3489999999999 386.799 905.528 483.154 879.621 583.725 907.39 689.211 945.664 785.755 985.429 886.059 1037.037 987.4549999999999 1128.285 1045.039 1219.244 1102.441 1334.735 1119.8029999999999 1440 1097.7150000000001" fill="#fefefe"></path>
    </g>
    <defs>
        <mask id="SvgjsMask1042">
            <rect width="1440" height="560" fill="#ffffff"></rect>
        </mask>
    </defs>
</svg>